<svg width="737" height="71" viewBox="0 0 737 71" fill="none" xmlns="http://www.w3.org/2000/svg">
<path d="M0.530029 69L12.338 1.79995H35.282C45.394 1.79995 52.818 4.26395 57.554 9.19195C62.29 14.1199 64.658 20.7759 64.658 29.1599C64.658 36.9679 62.93 43.8799 59.474 49.8959C56.082 55.9119 51.314 60.616 45.17 64.008C39.026 67.336 31.794 69 23.474 69H0.530029ZM14.642 58.44H24.722C30.546 58.44 35.474 57.288 39.506 54.984C43.602 52.68 46.706 49.416 48.818 45.192C50.93 40.968 51.986 35.976 51.986 30.216C51.986 24.1999 50.45 19.7199 47.378 16.7759C44.306 13.7679 39.474 12.264 32.882 12.264H22.802L14.642 58.44Z" fill="white"/>
<path d="M105.345 70.1519C99.6488 70.1519 94.6248 68.9039 90.2728 66.4079C85.9208 63.9119 82.4968 60.488 80.0008 56.136C77.5688 51.72 76.3528 46.7279 76.3528 41.1599C76.3528 35.5279 77.3768 30.2799 79.4248 25.4159C81.5368 20.4879 84.4168 16.1679 88.0648 12.4559C91.7768 8.74395 96.0648 5.86395 100.929 3.81595C105.857 1.70395 111.105 0.647949 116.673 0.647949C122.369 0.647949 127.393 1.89595 131.745 4.39195C136.097 6.88795 139.489 10.3119 141.921 14.6639C144.417 19.0159 145.665 23.9759 145.665 29.5439C145.665 35.1759 144.609 40.456 142.497 45.384C140.449 50.312 137.569 54.632 133.857 58.344C130.145 62.056 125.857 64.968 120.993 67.08C116.129 69.128 110.913 70.1519 105.345 70.1519ZM106.881 59.1119C110.465 59.1119 113.825 58.408 116.961 57C120.097 55.528 122.849 53.48 125.217 50.856C127.649 48.232 129.537 45.192 130.881 41.736C132.289 38.2799 132.993 34.5679 132.993 30.5999C132.993 24.8399 131.425 20.2639 128.289 16.8719C125.153 13.4159 120.801 11.688 115.233 11.688C111.585 11.688 108.193 12.424 105.057 13.896C101.921 15.368 99.1368 17.3839 96.7048 19.9439C94.3368 22.5039 92.4488 25.5119 91.0408 28.9679C89.6968 32.424 89.0248 36.1359 89.0248 40.1039C89.0248 45.8639 90.6248 50.472 93.8248 53.928C97.0248 57.384 101.377 59.1119 106.881 59.1119Z" fill="white"/>
<path d="M153.989 69L165.893 1.79995H178.277L201.317 49.704L209.765 1.79995H222.053L210.149 69H197.861L174.821 21.096L166.277 69H153.989Z" fill="white"/>
<path d="M242.761 69L252.841 11.4959H233.257L234.985 1.79995H286.537L284.905 11.4959H265.129L255.049 69H242.761Z" fill="white"/>
<path d="M329.221 69L323.365 1.79995H336.517L339.205 54.792L362.725 1.79995H376.453L380.773 54.6959L402.181 1.79995H415.525L385.381 69H370.789L366.277 19.2719L343.717 69H329.221Z" fill="white"/>
<path d="M445.92 70.1519C440.224 70.1519 435.2 68.9039 430.848 66.4079C426.496 63.9119 423.072 60.488 420.576 56.136C418.144 51.72 416.928 46.7279 416.928 41.1599C416.928 35.5279 417.952 30.2799 420 25.4159C422.112 20.4879 424.992 16.1679 428.64 12.4559C432.352 8.74395 436.64 5.86395 441.504 3.81595C446.432 1.70395 451.68 0.647949 457.248 0.647949C462.944 0.647949 467.968 1.89595 472.32 4.39195C476.672 6.88795 480.064 10.3119 482.496 14.6639C484.992 19.0159 486.24 23.9759 486.24 29.5439C486.24 35.1759 485.184 40.456 483.072 45.384C481.024 50.312 478.144 54.632 474.432 58.344C470.72 62.056 466.432 64.968 461.568 67.08C456.704 69.128 451.488 70.1519 445.92 70.1519ZM447.456 59.1119C451.04 59.1119 454.4 58.408 457.536 57C460.672 55.528 463.424 53.48 465.792 50.856C468.224 48.232 470.112 45.192 471.456 41.736C472.864 38.2799 473.568 34.5679 473.568 30.5999C473.568 24.8399 472 20.2639 468.864 16.8719C465.728 13.4159 461.376 11.688 455.808 11.688C452.16 11.688 448.768 12.424 445.632 13.896C442.496 15.368 439.712 17.3839 437.28 19.9439C434.912 22.5039 433.024 25.5119 431.616 28.9679C430.272 32.424 429.6 36.1359 429.6 40.1039C429.6 45.8639 431.2 50.472 434.4 53.928C437.6 57.384 441.952 59.1119 447.456 59.1119Z" fill="white"/>
<path d="M494.66 69L506.468 1.79995H530.756C535.492 1.79995 539.396 2.63195 542.468 4.29595C545.54 5.89595 547.812 8.03995 549.284 10.7279C550.82 13.416 551.588 16.3279 551.588 19.4639C551.588 24.8399 550.052 29.384 546.98 33.096C543.972 36.808 539.908 39.4319 534.788 40.9679L543.716 69H530.276L522.5 42.5039H511.652L506.948 69H494.66ZM513.188 33.4799H524.804C529.092 33.4799 532.516 32.3599 535.076 30.1199C537.636 27.8799 538.916 24.7759 538.916 20.8079C538.916 18.2479 538.084 16.1679 536.42 14.5679C534.82 12.9039 532.196 12.0719 528.548 12.0719H516.932L513.188 33.4799Z" fill="white"/>
<path d="M558.406 69L570.214 1.79995H594.502C599.238 1.79995 603.142 2.63195 606.214 4.29595C609.286 5.89595 611.558 8.03995 613.03 10.7279C614.566 13.416 615.334 16.3279 615.334 19.4639C615.334 24.8399 613.798 29.384 610.726 33.096C607.718 36.808 603.654 39.4319 598.534 40.9679L607.462 69H594.022L586.246 42.5039H575.398L570.694 69H558.406ZM576.934 33.4799H588.55C592.838 33.4799 596.262 32.3599 598.822 30.1199C601.382 27.8799 602.662 24.7759 602.662 20.8079C602.662 18.2479 601.83 16.1679 600.166 14.5679C598.566 12.9039 595.942 12.0719 592.294 12.0719H580.678L576.934 33.4799Z" fill="white"/>
<path d="M635.95 69L640.174 45.096L625.102 1.79995H639.118L648.526 32.7119L668.782 1.79995H682.606L652.462 45.096L648.238 69H635.95Z" fill="white"/>
<path d="M717.052 47.7839L723.772 1.79995H736.924L727.42 47.7839H717.052ZM720.604 69.672C718.364 69.672 716.508 68.9679 715.036 67.56C713.628 66.152 712.924 64.456 712.924 62.472C712.924 60.424 713.628 58.696 715.036 57.288C716.508 55.88 718.364 55.176 720.604 55.176C722.844 55.176 724.668 55.88 726.076 57.288C727.484 58.696 728.188 60.424 728.188 62.472C728.188 64.456 727.484 66.152 726.076 67.56C724.668 68.9679 722.844 69.672 720.604 69.672Z" fill="white"/>
</svg>
