<svg width="740" height="72" viewBox="0 0 740 72" fill="none" xmlns="http://www.w3.org/2000/svg">
<mask id="path-1-outside-1_7_65" maskUnits="userSpaceOnUse" x="0" y="0" width="740" height="72" fill="black">
<rect fill="white" width="740" height="72"/>
<path d="M2 69.352L13.808 2.152H36.752C46.864 2.152 54.288 4.616 59.024 9.544C63.76 14.472 66.128 21.128 66.128 29.512C66.128 37.32 64.4 44.232 60.944 50.248C57.552 56.264 52.784 60.968 46.64 64.36C40.496 67.688 33.264 69.352 24.944 69.352H2ZM16.112 58.792H26.192C32.016 58.792 36.944 57.64 40.976 55.336C45.072 53.032 48.176 49.768 50.288 45.544C52.4 41.32 53.456 36.328 53.456 30.568C53.456 24.552 51.92 20.072 48.848 17.128C45.776 14.12 40.944 12.616 34.352 12.616H24.272L16.112 58.792Z"/>
<path d="M106.815 70.504C101.119 70.504 96.0947 69.256 91.7427 66.76C87.3907 64.264 83.9667 60.84 81.4707 56.488C79.0387 52.072 77.8227 47.08 77.8227 41.512C77.8227 35.88 78.8468 30.632 80.8948 25.768C83.0068 20.84 85.8867 16.52 89.5348 12.808C93.2467 9.096 97.5348 6.216 102.399 4.168C107.327 2.056 112.575 1 118.143 1C123.839 1 128.863 2.248 133.215 4.744C137.567 7.24 140.959 10.664 143.391 15.016C145.887 19.368 147.135 24.328 147.135 29.896C147.135 35.528 146.079 40.808 143.967 45.736C141.919 50.664 139.039 54.984 135.327 58.696C131.615 62.408 127.327 65.32 122.463 67.432C117.599 69.48 112.383 70.504 106.815 70.504ZM108.351 59.464C111.935 59.464 115.295 58.76 118.431 57.352C121.567 55.88 124.319 53.832 126.687 51.208C129.119 48.584 131.007 45.544 132.351 42.088C133.759 38.632 134.463 34.92 134.463 30.952C134.463 25.192 132.895 20.616 129.759 17.224C126.623 13.768 122.271 12.04 116.703 12.04C113.055 12.04 109.663 12.776 106.527 14.248C103.391 15.72 100.607 17.736 98.1748 20.296C95.8067 22.856 93.9187 25.864 92.5107 29.32C91.1667 32.776 90.4947 36.488 90.4947 40.456C90.4947 46.216 92.0947 50.824 95.2947 54.28C98.4947 57.736 102.847 59.464 108.351 59.464Z"/>
<path d="M155.459 69.352L167.363 2.152H179.747L202.787 50.056L211.235 2.152H223.523L211.619 69.352H199.331L176.291 21.448L167.747 69.352H155.459Z"/>
<path d="M244.231 69.352L254.311 11.848H234.727L236.455 2.152H288.007L286.375 11.848H266.599L256.519 69.352H244.231Z"/>
<path d="M330.691 69.352L324.835 2.152H337.987L340.675 55.144L364.195 2.152H377.923L382.243 55.048L403.651 2.152H416.995L386.851 69.352H372.259L367.747 19.624L345.187 69.352H330.691Z"/>
<path d="M447.39 70.504C441.694 70.504 436.67 69.256 432.318 66.76C427.966 64.264 424.542 60.84 422.046 56.488C419.614 52.072 418.398 47.08 418.398 41.512C418.398 35.88 419.422 30.632 421.47 25.768C423.582 20.84 426.462 16.52 430.11 12.808C433.822 9.096 438.11 6.216 442.974 4.168C447.902 2.056 453.15 1 458.718 1C464.414 1 469.438 2.248 473.79 4.744C478.142 7.24 481.534 10.664 483.966 15.016C486.462 19.368 487.71 24.328 487.71 29.896C487.71 35.528 486.654 40.808 484.542 45.736C482.494 50.664 479.614 54.984 475.902 58.696C472.19 62.408 467.902 65.32 463.038 67.432C458.174 69.48 452.958 70.504 447.39 70.504ZM448.926 59.464C452.51 59.464 455.87 58.76 459.006 57.352C462.142 55.88 464.894 53.832 467.262 51.208C469.694 48.584 471.582 45.544 472.926 42.088C474.334 38.632 475.038 34.92 475.038 30.952C475.038 25.192 473.47 20.616 470.334 17.224C467.198 13.768 462.846 12.04 457.278 12.04C453.63 12.04 450.238 12.776 447.102 14.248C443.966 15.72 441.182 17.736 438.75 20.296C436.382 22.856 434.494 25.864 433.086 29.32C431.742 32.776 431.07 36.488 431.07 40.456C431.07 46.216 432.67 50.824 435.87 54.28C439.07 57.736 443.422 59.464 448.926 59.464Z"/>
<path d="M496.13 69.352L507.938 2.152H532.226C536.962 2.152 540.866 2.984 543.938 4.648C547.01 6.248 549.282 8.392 550.754 11.08C552.29 13.768 553.058 16.68 553.058 19.816C553.058 25.192 551.522 29.736 548.45 33.448C545.442 37.16 541.378 39.784 536.258 41.32L545.186 69.352H531.746L523.97 42.856H513.122L508.418 69.352H496.13ZM514.658 33.832H526.274C530.562 33.832 533.986 32.712 536.546 30.472C539.106 28.232 540.386 25.128 540.386 21.16C540.386 18.6 539.554 16.52 537.89 14.92C536.29 13.256 533.666 12.424 530.018 12.424H518.402L514.658 33.832Z"/>
<path d="M559.876 69.352L571.684 2.152H595.972C600.708 2.152 604.612 2.984 607.684 4.648C610.756 6.248 613.028 8.392 614.5 11.08C616.036 13.768 616.804 16.68 616.804 19.816C616.804 25.192 615.268 29.736 612.196 33.448C609.188 37.16 605.124 39.784 600.004 41.32L608.932 69.352H595.492L587.716 42.856H576.868L572.164 69.352H559.876ZM578.404 33.832H590.02C594.308 33.832 597.732 32.712 600.292 30.472C602.852 28.232 604.132 25.128 604.132 21.16C604.132 18.6 603.3 16.52 601.636 14.92C600.036 13.256 597.412 12.424 593.764 12.424H582.148L578.404 33.832Z"/>
<path d="M637.42 69.352L641.644 45.448L626.572 2.152H640.588L649.996 33.064L670.252 2.152H684.076L653.932 45.448L649.708 69.352H637.42Z"/>
<path d="M718.522 48.136L725.242 2.152H738.394L728.89 48.136H718.522ZM722.074 70.024C719.834 70.024 717.978 69.32 716.506 67.912C715.098 66.504 714.394 64.808 714.394 62.824C714.394 60.776 715.098 59.048 716.506 57.64C717.978 56.232 719.834 55.528 722.074 55.528C724.314 55.528 726.138 56.232 727.546 57.64C728.954 59.048 729.658 60.776 729.658 62.824C729.658 64.808 728.954 66.504 727.546 67.912C726.138 69.32 724.314 70.024 722.074 70.024Z"/>
</mask>
<path d="M2 69.352L13.808 2.152H36.752C46.864 2.152 54.288 4.616 59.024 9.544C63.76 14.472 66.128 21.128 66.128 29.512C66.128 37.32 64.4 44.232 60.944 50.248C57.552 56.264 52.784 60.968 46.64 64.36C40.496 67.688 33.264 69.352 24.944 69.352H2ZM16.112 58.792H26.192C32.016 58.792 36.944 57.64 40.976 55.336C45.072 53.032 48.176 49.768 50.288 45.544C52.4 41.32 53.456 36.328 53.456 30.568C53.456 24.552 51.92 20.072 48.848 17.128C45.776 14.12 40.944 12.616 34.352 12.616H24.272L16.112 58.792Z" stroke="white" stroke-width="2" mask="url(#path-1-outside-1_7_65)"/>
<path d="M106.815 70.504C101.119 70.504 96.0947 69.256 91.7427 66.76C87.3907 64.264 83.9667 60.84 81.4707 56.488C79.0387 52.072 77.8227 47.08 77.8227 41.512C77.8227 35.88 78.8468 30.632 80.8948 25.768C83.0068 20.84 85.8867 16.52 89.5348 12.808C93.2467 9.096 97.5348 6.216 102.399 4.168C107.327 2.056 112.575 1 118.143 1C123.839 1 128.863 2.248 133.215 4.744C137.567 7.24 140.959 10.664 143.391 15.016C145.887 19.368 147.135 24.328 147.135 29.896C147.135 35.528 146.079 40.808 143.967 45.736C141.919 50.664 139.039 54.984 135.327 58.696C131.615 62.408 127.327 65.32 122.463 67.432C117.599 69.48 112.383 70.504 106.815 70.504ZM108.351 59.464C111.935 59.464 115.295 58.76 118.431 57.352C121.567 55.88 124.319 53.832 126.687 51.208C129.119 48.584 131.007 45.544 132.351 42.088C133.759 38.632 134.463 34.92 134.463 30.952C134.463 25.192 132.895 20.616 129.759 17.224C126.623 13.768 122.271 12.04 116.703 12.04C113.055 12.04 109.663 12.776 106.527 14.248C103.391 15.72 100.607 17.736 98.1748 20.296C95.8067 22.856 93.9187 25.864 92.5107 29.32C91.1667 32.776 90.4947 36.488 90.4947 40.456C90.4947 46.216 92.0947 50.824 95.2947 54.28C98.4947 57.736 102.847 59.464 108.351 59.464Z" stroke="white" stroke-width="2" mask="url(#path-1-outside-1_7_65)"/>
<path d="M155.459 69.352L167.363 2.152H179.747L202.787 50.056L211.235 2.152H223.523L211.619 69.352H199.331L176.291 21.448L167.747 69.352H155.459Z" stroke="white" stroke-width="2" mask="url(#path-1-outside-1_7_65)"/>
<path d="M244.231 69.352L254.311 11.848H234.727L236.455 2.152H288.007L286.375 11.848H266.599L256.519 69.352H244.231Z" stroke="white" stroke-width="2" mask="url(#path-1-outside-1_7_65)"/>
<path d="M330.691 69.352L324.835 2.152H337.987L340.675 55.144L364.195 2.152H377.923L382.243 55.048L403.651 2.152H416.995L386.851 69.352H372.259L367.747 19.624L345.187 69.352H330.691Z" stroke="white" stroke-width="2" mask="url(#path-1-outside-1_7_65)"/>
<path d="M447.39 70.504C441.694 70.504 436.67 69.256 432.318 66.76C427.966 64.264 424.542 60.84 422.046 56.488C419.614 52.072 418.398 47.08 418.398 41.512C418.398 35.88 419.422 30.632 421.47 25.768C423.582 20.84 426.462 16.52 430.11 12.808C433.822 9.096 438.11 6.216 442.974 4.168C447.902 2.056 453.15 1 458.718 1C464.414 1 469.438 2.248 473.79 4.744C478.142 7.24 481.534 10.664 483.966 15.016C486.462 19.368 487.71 24.328 487.71 29.896C487.71 35.528 486.654 40.808 484.542 45.736C482.494 50.664 479.614 54.984 475.902 58.696C472.19 62.408 467.902 65.32 463.038 67.432C458.174 69.48 452.958 70.504 447.39 70.504ZM448.926 59.464C452.51 59.464 455.87 58.76 459.006 57.352C462.142 55.88 464.894 53.832 467.262 51.208C469.694 48.584 471.582 45.544 472.926 42.088C474.334 38.632 475.038 34.92 475.038 30.952C475.038 25.192 473.47 20.616 470.334 17.224C467.198 13.768 462.846 12.04 457.278 12.04C453.63 12.04 450.238 12.776 447.102 14.248C443.966 15.72 441.182 17.736 438.75 20.296C436.382 22.856 434.494 25.864 433.086 29.32C431.742 32.776 431.07 36.488 431.07 40.456C431.07 46.216 432.67 50.824 435.87 54.28C439.07 57.736 443.422 59.464 448.926 59.464Z" stroke="white" stroke-width="2" mask="url(#path-1-outside-1_7_65)"/>
<path d="M496.13 69.352L507.938 2.152H532.226C536.962 2.152 540.866 2.984 543.938 4.648C547.01 6.248 549.282 8.392 550.754 11.08C552.29 13.768 553.058 16.68 553.058 19.816C553.058 25.192 551.522 29.736 548.45 33.448C545.442 37.16 541.378 39.784 536.258 41.32L545.186 69.352H531.746L523.97 42.856H513.122L508.418 69.352H496.13ZM514.658 33.832H526.274C530.562 33.832 533.986 32.712 536.546 30.472C539.106 28.232 540.386 25.128 540.386 21.16C540.386 18.6 539.554 16.52 537.89 14.92C536.29 13.256 533.666 12.424 530.018 12.424H518.402L514.658 33.832Z" stroke="white" stroke-width="2" mask="url(#path-1-outside-1_7_65)"/>
<path d="M559.876 69.352L571.684 2.152H595.972C600.708 2.152 604.612 2.984 607.684 4.648C610.756 6.248 613.028 8.392 614.5 11.08C616.036 13.768 616.804 16.68 616.804 19.816C616.804 25.192 615.268 29.736 612.196 33.448C609.188 37.16 605.124 39.784 600.004 41.32L608.932 69.352H595.492L587.716 42.856H576.868L572.164 69.352H559.876ZM578.404 33.832H590.02C594.308 33.832 597.732 32.712 600.292 30.472C602.852 28.232 604.132 25.128 604.132 21.16C604.132 18.6 603.3 16.52 601.636 14.92C600.036 13.256 597.412 12.424 593.764 12.424H582.148L578.404 33.832Z" stroke="white" stroke-width="2" mask="url(#path-1-outside-1_7_65)"/>
<path d="M637.42 69.352L641.644 45.448L626.572 2.152H640.588L649.996 33.064L670.252 2.152H684.076L653.932 45.448L649.708 69.352H637.42Z" stroke="white" stroke-width="2" mask="url(#path-1-outside-1_7_65)"/>
<path d="M718.522 48.136L725.242 2.152H738.394L728.89 48.136H718.522ZM722.074 70.024C719.834 70.024 717.978 69.32 716.506 67.912C715.098 66.504 714.394 64.808 714.394 62.824C714.394 60.776 715.098 59.048 716.506 57.64C717.978 56.232 719.834 55.528 722.074 55.528C724.314 55.528 726.138 56.232 727.546 57.64C728.954 59.048 729.658 60.776 729.658 62.824C729.658 64.808 728.954 66.504 727.546 67.912C726.138 69.32 724.314 70.024 722.074 70.024Z" stroke="white" stroke-width="2" mask="url(#path-1-outside-1_7_65)"/>
</svg>
